<svg xmlns="http://www.w3.org/2000/svg" viewBox="0 0 80 60" data-burg-id="42" data-vector-hash="be6d21935038efe1d4dd732d7f1b2a5813859cebbd2abf0b03fe68092c05a217"><rect width="100%" height="100%" fill="#e8f2df"/><polygon points="16,16 16,22 25,22 25,16 16,16" fill="#fbbf24" fill-opacity="0.76" stroke="#1f2533" stroke-width="0.18"/><polygon points="16,23 16,29 25,29 25,23 16,23" fill="#e2e8f0" fill-opacity="0.76" stroke="#1f2533" stroke-width="0.18"/><polygon points="25,8 25,17 31,17 31,8 25,8" fill="#ffedd5" fill-opacity="0.76" stroke="#1f2533" stroke-width="0.18"/><polygon points="28,37 28,46 34,46 34,37 28,37" fill="#ffedd5" fill-opacity="0.76" stroke="#1f2533" stroke-width="0.18"/><polygon points="33,20 33,29 45,29 45,20 33,20" fill="#94a3b8" fill-opacity="0.76" stroke="#1f2533" stroke-width="0.18"/><polygon points="34,44 34,50 40,50 40,44 34,44" fill="#ffedd5" fill-opacity="0.76" stroke="#1f2533" stroke-width="0.18"/><polygon points="39,29 39,38 51,38 51,29 39,29" fill="#d1fae5" fill-opacity="0.76" stroke="#1f2533" stroke-width="0.18"/><polygon points="40,38 40,44 49,44 49,38 40,38" fill="#ffedd5" fill-opacity="0.76" stroke="#1f2533" stroke-width="0.18"/><polygon points="42,45 42,54 51,54 51,45 42,45" fill="#ffedd5" fill-opacity="0.76" stroke="#1f2533" stroke-width="0.18"/></svg>
