<svg xmlns="http://www.w3.org/2000/svg" viewBox="0 0 80 60" data-burg-id="55" data-vector-hash="acfca701f90854647b6d4211db2c06594e3c97a1291cc5ae603b2ce56fa0eb4c"><rect width="100%" height="100%" fill="#e8f2df"/><polygon points="26,43 26,49 35,49 35,43 26,43" fill="#94a3b8" fill-opacity="0.76" stroke="#1f2533" stroke-width="0.18"/><polygon points="32,37 32,43 38,43 38,37 32,37" fill="#94a3b8" fill-opacity="0.76" stroke="#1f2533" stroke-width="0.18"/><polygon points="32,9 32,18 41,18 41,9 32,9" fill="#ffedd5" fill-opacity="0.76" stroke="#1f2533" stroke-width="0.18"/><polygon points="35,31 35,37 44,37 44,31 35,31" fill="#ffedd5" fill-opacity="0.76" stroke="#1f2533" stroke-width="0.18"/><polygon points="38,25 38,31 47,31 47,25 38,25" fill="#e2e8f0" fill-opacity="0.76" stroke="#1f2533" stroke-width="0.18"/><polygon points="39,19 39,25 48,25 48,19 39,19" fill="#94a3b8" fill-opacity="0.76" stroke="#1f2533" stroke-width="0.18"/><polygon points="40,46 40,52 49,52 49,46 40,46" fill="#ffedd5" fill-opacity="0.76" stroke="#1f2533" stroke-width="0.18"/><polygon points="43,7 43,13 49,13 49,7 43,7" fill="#94a3b8" fill-opacity="0.76" stroke="#1f2533" stroke-width="0.18"/><polygon points="45,40 45,46 54,46 54,40 45,40" fill="#fbbf24" fill-opacity="0.76" stroke="#1f2533" stroke-width="0.18"/><polygon points="49,22 49,28 58,28 58,22 49,22" fill="#94a3b8" fill-opacity="0.76" stroke="#1f2533" stroke-width="0.18"/><polygon points="50,16 50,22 59,22 59,16 50,16" fill="#ffedd5" fill-opacity="0.76" stroke="#1f2533" stroke-width="0.18"/><polygon points="51,28 51,40 63,40 63,28 51,28" fill="#ffedd5" fill-opacity="0.76" stroke="#1f2533" stroke-width="0.18"/></svg>
