<svg xmlns="http://www.w3.org/2000/svg" viewBox="0 0 80 60" data-burg-id="34" data-vector-hash="0e3c855b4d1279b4862fb692fd89794505934c8ba25d0aa29b7e008d199e64e0"><rect width="100%" height="100%" fill="#e8f2df"/><path d="M24 2 L24 58 L53 58 L53 57 L25 57 L25 3 L40 3 L40 2 L24 2 Z M77 30 L77 57 L54 57 L54 58 L78 58 L78 30 L77 30 Z M41 2 L41 3 L71 3 L71 2 L41 2 Z" fill="#667085" fill-rule="evenodd"/><polygon points="30,26 30,32 39,32 39,26 30,26" fill="#fbbf24" fill-opacity="0.76" stroke="#1f2533" stroke-width="0.18"/><polygon points="32,32 32,41 44,41 44,32 32,32" fill="#ffedd5" fill-opacity="0.76" stroke="#1f2533" stroke-width="0.18"/><polygon points="33,13 33,19 39,19 39,13 33,13" fill="#94a3b8" fill-opacity="0.76" stroke="#1f2533" stroke-width="0.18"/><polygon points="35,5 35,11 41,11 41,5 35,5" fill="#ffedd5" fill-opacity="0.76" stroke="#1f2533" stroke-width="0.18"/><polygon points="36,20 36,26 45,26 45,20 36,20" fill="#e2e8f0" fill-opacity="0.76" stroke="#1f2533" stroke-width="0.18"/><polygon points="38,43 38,49 47,49 47,43 38,43" fill="#94a3b8" fill-opacity="0.76" stroke="#1f2533" stroke-width="0.18"/><polygon points="44,5 44,11 53,11 53,5 44,5" fill="#ffedd5" fill-opacity="0.76" stroke="#1f2533" stroke-width="0.18"/><polygon points="45,14 45,20 54,20 54,14 45,14" fill="#ffedd5" fill-opacity="0.76" stroke="#1f2533" stroke-width="0.18"/><polygon points="51,22 51,31 57,31 57,22 51,22" fill="#fbbf24" fill-opacity="0.76" stroke="#1f2533" stroke-width="0.18"/><polygon points="58,45 58,51 67,51 67,45 58,45" fill="#ffedd5" fill-opacity="0.76" stroke="#1f2533" stroke-width="0.18"/><polygon points="60,27 60,36 72,36 72,27 60,27" fill="#ffedd5" fill-opacity="0.76" stroke="#1f2533" stroke-width="0.18"/><polygon points="61,36 61,45 70,45 70,36 61,36" fill="#ffedd5" fill-opacity="0.76" stroke="#1f2533" stroke-width="0.18"/><circle cx="40.5" cy="2.5" r="0.55" fill="#ffd166"/><circle cx="53.5" cy="57.5" r="0.55" fill="#ffd166"/></svg>
