<svg xmlns="http://www.w3.org/2000/svg" viewBox="0 0 80 60" data-burg-id="35" data-vector-hash="942a174a9d837ad15ef583e04333c6b559422d1671a2c8ebddf484195122eec1"><rect width="100%" height="100%" fill="#e8f2df"/><polygon points="23,13 23,22 29,22 29,13 23,13" fill="#ffedd5" fill-opacity="0.76" stroke="#1f2533" stroke-width="0.18"/><polygon points="29,17 29,23 38,23 38,17 29,17" fill="#ffedd5" fill-opacity="0.76" stroke="#1f2533" stroke-width="0.18"/><polygon points="34,23 34,32 46,32 46,23 34,23" fill="#d1fae5" fill-opacity="0.76" stroke="#1f2533" stroke-width="0.18"/><polygon points="37,8 37,14 43,14 43,8 37,8" fill="#94a3b8" fill-opacity="0.76" stroke="#1f2533" stroke-width="0.18"/><polygon points="45,9 45,21 57,21 57,9 45,9" fill="#e2e8f0" fill-opacity="0.76" stroke="#1f2533" stroke-width="0.18"/><polygon points="49,31 49,40 55,40 55,31 49,31" fill="#ffedd5" fill-opacity="0.76" stroke="#1f2533" stroke-width="0.18"/></svg>
