<svg xmlns="http://www.w3.org/2000/svg" viewBox="0 0 80 60" data-burg-id="11" data-vector-hash="39fbf64729f3fcf7ab938c1efa56cf8f651d1f3742c9e245f2049dbdb39b989d"><rect width="100%" height="100%" fill="#e8f2df"/><path d="M40 2 L40 3 L72 3 L72 41 L73 41 L73 2 L40 2 Z M11 52 L11 58 L51 58 L51 57 L12 57 L12 52 L11 52 Z M11 32 L11 50 L12 50 L12 32 L11 32 Z" fill="#667085" fill-rule="evenodd"/><polygon points="17,23 17,29 23,29 23,23 17,23" fill="#fbbf24" fill-opacity="0.76" stroke="#1f2533" stroke-width="0.18"/><polygon points="20,29 20,35 29,35 29,29 20,29" fill="#fbbf24" fill-opacity="0.76" stroke="#1f2533" stroke-width="0.18"/><polygon points="27,11 27,17 33,17 33,11 27,11" fill="#e2e8f0" fill-opacity="0.76" stroke="#1f2533" stroke-width="0.18"/><polygon points="31,34 31,43 37,43 37,34 31,34" fill="#94a3b8" fill-opacity="0.76" stroke="#1f2533" stroke-width="0.18"/><polygon points="34,10 34,19 40,19 40,10 34,10" fill="#fbbf24" fill-opacity="0.76" stroke="#1f2533" stroke-width="0.18"/><polygon points="35,43 35,52 41,52 41,43 35,43" fill="#ffedd5" fill-opacity="0.76" stroke="#1f2533" stroke-width="0.18"/><polygon points="40,5 40,17 49,17 49,5 40,5" fill="#ffedd5" fill-opacity="0.76" stroke="#1f2533" stroke-width="0.18"/><polygon points="51,17 51,26 60,26 60,17 51,17" fill="#ffedd5" fill-opacity="0.76" stroke="#1f2533" stroke-width="0.18"/><polygon points="60,22 60,31 66,31 66,22 60,22" fill="#ffedd5" fill-opacity="0.76" stroke="#1f2533" stroke-width="0.18"/></svg>
