<svg xmlns="http://www.w3.org/2000/svg" viewBox="0 0 80 60" data-burg-id="31" data-theme-id="northern-european" data-vector-hash="a1a5a7e818eac69dffdd9915b116d1aa2125fa4035bde992ff19fbe294db7ee4"><rect width="100%" height="100%" fill="#e8f2df"/><path d="M47 30.5 H54" stroke="#c9a36b" stroke-width="0.82" stroke-linecap="butt" opacity="0.84" data-kind="dirt" data-elevation-tier="5"/><path d="M54 30.5 H59" stroke="#c9a36b" stroke-width="0.82" stroke-linecap="butt" opacity="0.8" data-kind="dirt" data-elevation-tier="4"/><path d="M69 30.5 H70" stroke="#c9a36b" stroke-width="0.82" stroke-linecap="butt" opacity="0.71" data-kind="dirt" data-elevation-tier="2"/><path d="M70 30.5 H75" stroke="#8c6848" stroke-width="0.82" stroke-linecap="butt" opacity="0.67" data-kind="dock" data-elevation-tier="1"/><path d="M52 31.5 H53" stroke="#c9a36b" stroke-width="0.82" stroke-linecap="butt" opacity="0.84" data-kind="dirt" data-elevation-tier="5"/><path d="M59 31.5 H61" stroke="#c9a36b" stroke-width="0.82" stroke-linecap="butt" opacity="0.8" data-kind="dirt" data-elevation-tier="4"/><path d="M61 31.5 H66" stroke="#c9a36b" stroke-width="0.82" stroke-linecap="butt" opacity="0.76" data-kind="dirt" data-elevation-tier="3"/><path d="M66 31.5 H69" stroke="#c9a36b" stroke-width="0.82" stroke-linecap="butt" opacity="0.71" data-kind="dirt" data-elevation-tier="2"/><path d="M52 32.5 H53" stroke="#c9a36b" stroke-width="0.82" stroke-linecap="butt" opacity="0.84" data-kind="dirt" data-elevation-tier="5"/><path d="M52 33.5 H53" stroke="#c9a36b" stroke-width="0.82" stroke-linecap="butt" opacity="0.84" data-kind="dirt" data-elevation-tier="5"/><path d="M52 34.5 H54" stroke="#c9a36b" stroke-width="0.82" stroke-linecap="butt" opacity="0.84" data-kind="dirt" data-elevation-tier="5"/><path d="M54 34.5 H57" stroke="#c9a36b" stroke-width="0.82" stroke-linecap="butt" opacity="0.8" data-kind="dirt" data-elevation-tier="4"/><polygon points="42,18 42,30 54,30 54,18 42,18" fill="#ffedd5" fill-opacity="0.76" stroke="#1f2533" stroke-width="0.18"/><polygon points="43,31 43,43 52,43 52,31 43,31" fill="#e2e8f0" fill-opacity="0.76" stroke="#1f2533" stroke-width="0.18"/><polygon points="52,35 52,44 58,44 58,35 52,35" fill="#ffedd5" fill-opacity="0.76" stroke="#1f2533" stroke-width="0.18"/><polygon points="54,21 54,30 60,30 60,21 54,21" fill="#fef3c7" fill-opacity="0.76" stroke="#1f2533" stroke-width="0.18"/><polygon points="58,32 58,41 64,41 64,32 58,32" fill="#ffedd5" fill-opacity="0.76" stroke="#1f2533" stroke-width="0.18"/><polygon points="62,22 62,31 68,31 68,22 62,22" fill="#ffedd5" fill-opacity="0.76" stroke="#1f2533" stroke-width="0.18"/><polygon points="64,32 64,38 70,38 70,32 64,32" fill="#ffedd5" fill-opacity="0.76" stroke="#1f2533" stroke-width="0.18"/></svg>
