<svg xmlns="http://www.w3.org/2000/svg" viewBox="0 0 80 60" data-burg-id="52" data-vector-hash="5ae5828f685136416f6009d1be57db3271712f4ac59a7b5ab7aef3227bb3c83b"><rect width="100%" height="100%" fill="#e8f2df"/><polygon points="22,26 22,35 28,35 28,26 22,26" fill="#94a3b8" fill-opacity="0.76" stroke="#1f2533" stroke-width="0.18"/><polygon points="23,37 23,46 29,46 29,37 23,37" fill="#fbbf24" fill-opacity="0.76" stroke="#1f2533" stroke-width="0.18"/><polygon points="29,39 29,48 35,48 35,39 29,39" fill="#fbbf24" fill-opacity="0.76" stroke="#1f2533" stroke-width="0.18"/><polygon points="31,23 31,35 43,35 43,23 31,23" fill="#e2e8f0" fill-opacity="0.76" stroke="#1f2533" stroke-width="0.18"/><polygon points="35,44 35,53 41,53 41,44 35,44" fill="#e2e8f0" fill-opacity="0.76" stroke="#1f2533" stroke-width="0.18"/><polygon points="43,30 43,39 49,39 49,30 43,30" fill="#ffedd5" fill-opacity="0.76" stroke="#1f2533" stroke-width="0.18"/><polygon points="43,41 43,47 52,47 52,41 43,41" fill="#fbbf24" fill-opacity="0.76" stroke="#1f2533" stroke-width="0.18"/></svg>
