<svg xmlns="http://www.w3.org/2000/svg" viewBox="0 0 80 60" data-burg-id="5" data-vector-hash="521742b2e4d9a1af7bc0b827ff5c57320d3f884895a8d4fdc011ec7bc12a28a1"><rect width="100%" height="100%" fill="#e8f2df"/><path d="M50 15 L50 16 L69 16 L69 50 L70 50 L70 15 L50 15 Z M12 27 L12 50 L13 50 L13 27 L12 27 Z M50 56 L50 57 L51 57 L51 56 L50 56 Z M53 56 L53 57 L54 57 L54 56 L53 56 Z" fill="#667085" fill-rule="evenodd"/><polygon points="18,32 18,41 30,41 30,32 18,32" fill="#ffedd5" fill-opacity="0.76" stroke="#1f2533" stroke-width="0.18"/><polygon points="23,21 23,27 29,27 29,21 23,21" fill="#ffedd5" fill-opacity="0.76" stroke="#1f2533" stroke-width="0.18"/><polygon points="25,44 25,50 34,50 34,44 25,44" fill="#ffedd5" fill-opacity="0.76" stroke="#1f2533" stroke-width="0.18"/><polygon points="50,34 50,40 59,40 59,34 50,34" fill="#94a3b8" fill-opacity="0.76" stroke="#1f2533" stroke-width="0.18"/><polygon points="54,40 54,46 63,46 63,40 54,40" fill="#ffedd5" fill-opacity="0.76" stroke="#1f2533" stroke-width="0.18"/><circle cx="51.5" cy="56.5" r="0.55" fill="#ffd166"/><circle cx="52.5" cy="56.5" r="0.55" fill="#ffd166"/></svg>
